<?xml version="1.0" standalone="no"?>
<!DOCTYPE svg PUBLIC "-//W3C//DTD SVG 20010904//EN"
 "http://www.w3.org/TR/2001/REC-SVG-20010904/DTD/svg10.dtd">
<svg version="1.0" xmlns="http://www.w3.org/2000/svg"
 width="147.000000pt" height="147.000000pt" viewBox="0 0 147.000000 147.000000"
 preserveAspectRatio="xMidYMid meet">
<metadata>
Created by potrace 1.11, written by Peter Selinger 2001-2013
</metadata>
<g transform="translate(0.000000,147.000000) scale(0.100000,-0.100000)"
fill="#000000" stroke="none">
<path d="M12 855 l0 -493 22 -10 c12 -5 92 -38 176 -72 85 -34 169 -68 185
-75 17 -7 72 -30 123 -50 l93 -37 58 21 c55 20 76 21 425 21 l366 0 1 33 c1
38 1 140 0 147 -1 3 -40 6 -87 5 -47 0 -88 4 -91 9 -3 4 -5 46 -5 92 l1 83
-32 3 -32 3 -1 400 c-1 220 -2 403 -3 407 -1 6 -58 -15 -156 -57 -16 -7 -121
-49 -233 -93 -223 -89 -201 -86 -307 -41 -16 6 -35 13 -40 14 -6 2 -31 12 -55
22 -25 11 -110 46 -190 77 -80 32 -154 61 -165 66 -58 24 -53 65 -53 -475z"/>
</g>
</svg>
